# A5S segment_2
v -18.000000 0.000000 0.000000
v -18.000000 0.000000 0.000000
v -18.000000 0.000000 0.000000
v -18.000000 0.000000 0.000000
v -18.000000 0.000000 0.000000
v -18.000000 0.000000 0.000000
v -18.000000 0.000000 0.000000
v -18.000000 0.000000 0.000000
v -18.000000 0.000000 0.000000
v -18.000000 0.000000 0.000000
v -18.000000 0.000000 0.000000
v -18.000000 0.000000 0.000000
v -18.000000 0.000000 0.000000
v -18.000000 -0.000000 0.000000
v -18.000000 -0.000000 0.000000
v -18.000000 -0.000000 0.000000
v -18.000000 -0.000000 0.000000
v -18.000000 -0.000000 0.000000
v -18.000000 -0.000000 0.000000
v -18.000000 -0.000000 0.000000
v -18.000000 -0.000000 0.000000
v -18.000000 -0.000000 0.000000
v -18.000000 -0.000000 0.000000
v -18.000000 -0.000000 0.000000
v -17.944512 0.000000 0.492760
v -17.944512 0.127536 0.475969
v -17.944512 0.246380 0.426742
v -17.944512 0.348434 0.348434
v -17.944512 0.426742 0.246380
v -17.944512 0.475969 0.127536
v -17.944512 0.492760 0.000000
v -17.944512 0.475969 -0.127536
v -17.944512 0.426742 -0.246380
v -17.944512 0.348434 -0.348434
v -17.944512 0.246380 -0.426742
v -17.944512 0.127536 -0.475969
v -17.944512 0.000000 -0.492760
v -17.944512 -0.127536 -0.475969
v -17.944512 -0.246380 -0.426742
v -17.944512 -0.348434 -0.348434
v -17.944512 -0.426742 -0.246380
v -17.944512 -0.475969 -0.127536
v -17.944512 -0.492760 -0.000000
v -17.944512 -0.475969 0.127536
v -17.944512 -0.426742 0.246380
v -17.944512 -0.348434 0.348434
v -17.944512 -0.246380 0.426742
v -17.944512 -0.127536 0.475969
v -17.778390 0.000000 0.961406
v -17.778390 0.248830 0.928647
v -17.778390 0.480703 0.832602
v -17.778390 0.679817 0.679817
v -17.778390 0.832602 0.480703
v -17.778390 0.928647 0.248830
v -17.778390 0.961406 0.000000
v -17.778390 0.928647 -0.248830
v -17.778390 0.832602 -0.480703
v -17.778390 0.679817 -0.679817
v -17.778390 0.480703 -0.832602
v -17.778390 0.248830 -0.928647
v -17.778390 0.000000 -0.961406
v -17.778390 -0.248830 -0.928647
v -17.778390 -0.480703 -0.832602
v -17.778390 -0.679817 -0.679817
v -17.778390 -0.832602 -0.480703
v -17.778390 -0.928647 -0.248830
v -17.778390 -0.961406 -0.000000
v -17.778390 -0.928647 0.248830
v -17.778390 -0.832602 0.480703
v -17.778390 -0.679817 0.679817
v -17.778390 -0.480703 0.832602
v -17.778390 -0.248830 0.928647
v -17.502659 0.000000 1.380231
v -17.502659 0.357230 1.333201
v -17.502659 0.690116 1.195315
v -17.502659 0.975971 0.975971
v -17.502659 1.195315 0.690116
v -17.502659 1.333201 0.357230
v -17.502659 1.380231 0.000000
v -17.502659 1.333201 -0.357230
v -17.502659 1.195315 -0.690116
v -17.502659 0.975971 -0.975971
v -17.502659 0.690116 -1.195315
v -17.502659 0.357230 -1.333201
v -17.502659 0.000000 -1.380231
v -17.502659 -0.357230 -1.333201
v -17.502659 -0.690116 -1.195315
v -17.502659 -0.975971 -0.975971
v -17.502659 -1.195315 -0.690116
v -17.502659 -1.333201 -0.357230
v -17.502659 -1.380231 -0.000000
v -17.502659 -1.333201 0.357230
v -17.502659 -1.195315 0.690116
v -17.502659 -0.975971 0.975971
v -17.502659 -0.690116 1.195315
v -17.502659 -0.357230 1.333201
v -17.119017 0.000000 1.719678
v -17.119017 0.445085 1.661082
v -17.119017 0.859839 1.489285
v -17.119017 1.215996 1.215996
v -17.119017 1.489285 0.859839
v -17.119017 1.661082 0.445085
v -17.119017 1.719678 0.000000
v -17.119017 1.661082 -0.445085
v -17.119017 1.489285 -0.859839
v -17.119017 1.215996 -1.215996
v -17.119017 0.859839 -1.489285
v -17.119017 0.445085 -1.661082
v -17.119017 0.000000 -1.719678
v -17.119017 -0.445085 -1.661082
v -17.119017 -0.859839 -1.489285
v -17.119017 -1.215996 -1.215996
v -17.119017 -1.489285 -0.859839
v -17.119017 -1.661082 -0.445085
v -17.119017 -1.719678 -0.000000
v -17.119017 -1.661082 0.445085
v -17.119017 -1.489285 0.859839
v -17.119017 -1.215996 1.215996
v -17.119017 -0.859839 1.489285
v -17.119017 -0.445085 1.661082
v -16.629832 0.000000 1.942140
v -16.629832 0.502663 1.875963
v -16.629832 0.971070 1.681942
v -16.629832 1.373300 1.373300
v -16.629832 1.681942 0.971070
v -16.629832 1.875963 0.502663
v -16.629832 1.942140 0.000000
v -16.629832 1.875963 -0.502663
v -16.629832 1.681942 -0.971070
v -16.629832 1.373300 -1.373300
v -16.629832 0.971070 -1.681942
v -16.629832 0.502663 -1.875963
v -16.629832 0.000000 -1.942140
v -16.629832 -0.502663 -1.875963
v -16.629832 -0.971070 -1.681942
v -16.629832 -1.373300 -1.373300
v -16.629832 -1.681942 -0.971070
v -16.629832 -1.875963 -0.502663
v -16.629832 -1.942140 -0.000000
v -16.629832 -1.875963 0.502663
v -16.629832 -1.681942 0.971070
v -16.629832 -1.373300 1.373300
v -16.629832 -0.971070 1.681942
v -16.629832 -0.502663 1.875963
v -16.038117 0.000000 2.000000
v -16.038117 0.517638 1.931852
v -16.038117 1.000000 1.732051
v -16.038117 1.414214 1.414214
v -16.038117 1.732051 1.000000
v -16.038117 1.931852 0.517638
v -16.038117 2.000000 0.000000
v -16.038117 1.931852 -0.517638
v -16.038117 1.732051 -1.000000
v -16.038117 1.414214 -1.414214
v -16.038117 1.000000 -1.732051
v -16.038117 0.517638 -1.931852
v -16.038117 0.000000 -2.000000
v -16.038117 -0.517638 -1.931852
v -16.038117 -1.000000 -1.732051
v -16.038117 -1.414214 -1.414214
v -16.038117 -1.732051 -1.000000
v -16.038117 -1.931852 -0.517638
v -16.038117 -2.000000 -0.000000
v -16.038117 -1.931852 0.517638
v -16.038117 -1.732051 1.000000
v -16.038117 -1.414214 1.414214
v -16.038117 -1.000000 1.732051
v -16.038117 -0.517638 1.931852
v -15.347523 0.000000 2.000000
v -15.347523 0.517638 1.931852
v -15.347523 1.000000 1.732051
v -15.347523 1.414214 1.414214
v -15.347523 1.732051 1.000000
v -15.347523 1.931852 0.517638
v -15.347523 2.000000 0.000000
v -15.347523 1.931852 -0.517638
v -15.347523 1.732051 -1.000000
v -15.347523 1.414214 -1.414214
v -15.347523 1.000000 -1.732051
v -15.347523 0.517638 -1.931852
v -15.347523 0.000000 -2.000000
v -15.347523 -0.517638 -1.931852
v -15.347523 -1.000000 -1.732051
v -15.347523 -1.414214 -1.414214
v -15.347523 -1.732051 -1.000000
v -15.347523 -1.931852 -0.517638
v -15.347523 -2.000000 -0.000000
v -15.347523 -1.931852 0.517638
v -15.347523 -1.732051 1.000000
v -15.347523 -1.414214 1.414214
v -15.347523 -1.000000 1.732051
v -15.347523 -0.517638 1.931852
v -14.562306 0.000000 2.000000
v -14.562306 0.517638 1.931852
v -14.562306 1.000000 1.732051
v -14.562306 1.414214 1.414214
v -14.562306 1.732051 1.000000
v -14.562306 1.931852 0.517638
v -14.562306 2.000000 0.000000
v -14.562306 1.931852 -0.517638
v -14.562306 1.732051 -1.000000
v -14.562306 1.414214 -1.414214
v -14.562306 1.000000 -1.732051
v -14.562306 0.517638 -1.931852
v -14.562306 0.000000 -2.000000
v -14.562306 -0.517638 -1.931852
v -14.562306 -1.000000 -1.732051
v -14.562306 -1.414214 -1.414214
v -14.562306 -1.732051 -1.000000
v -14.562306 -1.931852 -0.517638
v -14.562306 -2.000000 -0.000000
v -14.562306 -1.931852 0.517638
v -14.562306 -1.732051 1.000000
v -14.562306 -1.414214 1.414214
v -14.562306 -1.000000 1.732051
v -14.562306 -0.517638 1.931852
v -13.687307 0.000000 2.000000
v -13.687307 0.517638 1.931852
v -13.687307 1.000000 1.732051
v -13.687307 1.414214 1.414214
v -13.687307 1.732051 1.000000
v -13.687307 1.931852 0.517638
v -13.687307 2.000000 0.000000
v -13.687307 1.931852 -0.517638
v -13.687307 1.732051 -1.000000
v -13.687307 1.414214 -1.414214
v -13.687307 1.000000 -1.732051
v -13.687307 0.517638 -1.931852
v -13.687307 0.000000 -2.000000
v -13.687307 -0.517638 -1.931852
v -13.687307 -1.000000 -1.732051
v -13.687307 -1.414214 -1.414214
v -13.687307 -1.732051 -1.000000
v -13.687307 -1.931852 -0.517638
v -13.687307 -2.000000 -0.000000
v -13.687307 -1.931852 0.517638
v -13.687307 -1.732051 1.000000
v -13.687307 -1.414214 1.414214
v -13.687307 -1.000000 1.732051
v -13.687307 -0.517638 1.931852
v -12.727922 0.000000 2.000000
v -12.727922 0.517638 1.931852
v -12.727922 1.000000 1.732051
v -12.727922 1.414214 1.414214
v -12.727922 1.732051 1.000000
v -12.727922 1.931852 0.517638
v -12.727922 2.000000 0.000000
v -12.727922 1.931852 -0.517638
v -12.727922 1.732051 -1.000000
v -12.727922 1.414214 -1.414214
v -12.727922 1.000000 -1.732051
v -12.727922 0.517638 -1.931852
v -12.727922 0.000000 -2.000000
v -12.727922 -0.517638 -1.931852
v -12.727922 -1.000000 -1.732051
v -12.727922 -1.414214 -1.414214
v -12.727922 -1.732051 -1.000000
v -12.727922 -1.931852 -0.517638
v -12.727922 -2.000000 -0.000000
v -12.727922 -1.931852 0.517638
v -12.727922 -1.732051 1.000000
v -12.727922 -1.414214 1.414214
v -12.727922 -1.000000 1.732051
v -12.727922 -0.517638 1.931852
v -11.690065 0.000000 2.000000
v -11.690065 0.517638 1.931852
v -11.690065 1.000000 1.732051
v -11.690065 1.414214 1.414214
v -11.690065 1.732051 1.000000
v -11.690065 1.931852 0.517638
v -11.690065 2.000000 0.000000
v -11.690065 1.931852 -0.517638
v -11.690065 1.732051 -1.000000
v -11.690065 1.414214 -1.414214
v -11.690065 1.000000 -1.732051
v -11.690065 0.517638 -1.931852
v -11.690065 0.000000 -2.000000
v -11.690065 -0.517638 -1.931852
v -11.690065 -1.000000 -1.732051
v -11.690065 -1.414214 -1.414214
v -11.690065 -1.732051 -1.000000
v -11.690065 -1.931852 -0.517638
v -11.690065 -2.000000 -0.000000
v -11.690065 -1.931852 0.517638
v -11.690065 -1.732051 1.000000
v -11.690065 -1.414214 1.414214
v -11.690065 -1.000000 1.732051
v -11.690065 -0.517638 1.931852
v -10.580135 0.000000 2.000000
v -10.580135 0.517638 1.931852
v -10.580135 1.000000 1.732051
v -10.580135 1.414214 1.414214
v -10.580135 1.732051 1.000000
v -10.580135 1.931852 0.517638
v -10.580135 2.000000 0.000000
v -10.580135 1.931852 -0.517638
v -10.580135 1.732051 -1.000000
v -10.580135 1.414214 -1.414214
v -10.580135 1.000000 -1.732051
v -10.580135 0.517638 -1.931852
v -10.580135 0.000000 -2.000000
v -10.580135 -0.517638 -1.931852
v -10.580135 -1.000000 -1.732051
v -10.580135 -1.414214 -1.414214
v -10.580135 -1.732051 -1.000000
v -10.580135 -1.931852 -0.517638
v -10.580135 -2.000000 -0.000000
v -10.580135 -1.931852 0.517638
v -10.580135 -1.732051 1.000000
v -10.580135 -1.414214 1.414214
v -10.580135 -1.000000 1.732051
v -10.580135 -0.517638 1.931852
v -9.404974 0.000000 2.000000
v -9.404974 0.517638 1.931852
v -9.404974 1.000000 1.732051
v -9.404974 1.414214 1.414214
v -9.404974 1.732051 1.000000
v -9.404974 1.931852 0.517638
v -9.404974 2.000000 0.000000
v -9.404974 1.931852 -0.517638
v -9.404974 1.732051 -1.000000
v -9.404974 1.414214 -1.414214
v -9.404974 1.000000 -1.732051
v -9.404974 0.517638 -1.931852
v -9.404974 0.000000 -2.000000
v -9.404974 -0.517638 -1.931852
v -9.404974 -1.000000 -1.732051
v -9.404974 -1.414214 -1.414214
v -9.404974 -1.732051 -1.000000
v -9.404974 -1.931852 -0.517638
v -9.404974 -2.000000 -0.000000
v -9.404974 -1.931852 0.517638
v -9.404974 -1.732051 1.000000
v -9.404974 -1.414214 1.414214
v -9.404974 -1.000000 1.732051
v -9.404974 -0.517638 1.931852
v -8.171829 0.000000 2.000000
v -8.171829 0.517638 1.931852
v -8.171829 1.000000 1.732051
v -8.171829 1.414214 1.414214
v -8.171829 1.732051 1.000000
v -8.171829 1.931852 0.517638
v -8.171829 2.000000 0.000000
v -8.171829 1.931852 -0.517638
v -8.171829 1.732051 -1.000000
v -8.171829 1.414214 -1.414214
v -8.171829 1.000000 -1.732051
v -8.171829 0.517638 -1.931852
v -8.171829 0.000000 -2.000000
v -8.171829 -0.517638 -1.931852
v -8.171829 -1.000000 -1.732051
v -8.171829 -1.414214 -1.414214
v -8.171829 -1.732051 -1.000000
v -8.171829 -1.931852 -0.517638
v -8.171829 -2.000000 -0.000000
v -8.171829 -1.931852 0.517638
v -8.171829 -1.732051 1.000000
v -8.171829 -1.414214 1.414214
v -8.171829 -1.000000 1.732051
v -8.171829 -0.517638 1.931852
v -6.888302 0.000000 2.000000
v -6.888302 0.517638 1.931852
v -6.888302 1.000000 1.732051
v -6.888302 1.414214 1.414214
v -6.888302 1.732051 1.000000
v -6.888302 1.931852 0.517638
v -6.888302 2.000000 0.000000
v -6.888302 1.931852 -0.517638
v -6.888302 1.732051 -1.000000
v -6.888302 1.414214 -1.414214
v -6.888302 1.000000 -1.732051
v -6.888302 0.517638 -1.931852
v -6.888302 0.000000 -2.000000
v -6.888302 -0.517638 -1.931852
v -6.888302 -1.000000 -1.732051
v -6.888302 -1.414214 -1.414214
v -6.888302 -1.732051 -1.000000
v -6.888302 -1.931852 -0.517638
v -6.888302 -2.000000 -0.000000
v -6.888302 -1.931852 0.517638
v -6.888302 -1.732051 1.000000
v -6.888302 -1.414214 1.414214
v -6.888302 -1.000000 1.732051
v -6.888302 -0.517638 1.931852
v -5.562306 0.000000 2.000000
v -5.562306 0.517638 1.931852
v -5.562306 1.000000 1.732051
v -5.562306 1.414214 1.414214
v -5.562306 1.732051 1.000000
v -5.562306 1.931852 0.517638
v -5.562306 2.000000 0.000000
v -5.562306 1.931852 -0.517638
v -5.562306 1.732051 -1.000000
v -5.562306 1.414214 -1.414214
v -5.562306 1.000000 -1.732051
v -5.562306 0.517638 -1.931852
v -5.562306 0.000000 -2.000000
v -5.562306 -0.517638 -1.931852
v -5.562306 -1.000000 -1.732051
v -5.562306 -1.414214 -1.414214
v -5.562306 -1.732051 -1.000000
v -5.562306 -1.931852 -0.517638
v -5.562306 -2.000000 -0.000000
v -5.562306 -1.931852 0.517638
v -5.562306 -1.732051 1.000000
v -5.562306 -1.414214 1.414214
v -5.562306 -1.000000 1.732051
v -5.562306 -0.517638 1.931852
v -4.202017 0.000000 2.000000
v -4.202017 0.517638 1.931852
v -4.202017 1.000000 1.732051
v -4.202017 1.414214 1.414214
v -4.202017 1.732051 1.000000
v -4.202017 1.931852 0.517638
v -4.202017 2.000000 0.000000
v -4.202017 1.931852 -0.517638
v -4.202017 1.732051 -1.000000
v -4.202017 1.414214 -1.414214
v -4.202017 1.000000 -1.732051
v -4.202017 0.517638 -1.931852
v -4.202017 0.000000 -2.000000
v -4.202017 -0.517638 -1.931852
v -4.202017 -1.000000 -1.732051
v -4.202017 -1.414214 -1.414214
v -4.202017 -1.732051 -1.000000
v -4.202017 -1.931852 -0.517638
v -4.202017 -2.000000 -0.000000
v -4.202017 -1.931852 0.517638
v -4.202017 -1.732051 1.000000
v -4.202017 -1.414214 1.414214
v -4.202017 -1.000000 1.732051
v -4.202017 -0.517638 1.931852
v -2.815820 0.000000 2.000000
v -2.815820 0.517638 1.931852
v -2.815820 1.000000 1.732051
v -2.815820 1.414214 1.414214
v -2.815820 1.732051 1.000000
v -2.815820 1.931852 0.517638
v -2.815820 2.000000 0.000000
v -2.815820 1.931852 -0.517638
v -2.815820 1.732051 -1.000000
v -2.815820 1.414214 -1.414214
v -2.815820 1.000000 -1.732051
v -2.815820 0.517638 -1.931852
v -2.815820 0.000000 -2.000000
v -2.815820 -0.517638 -1.931852
v -2.815820 -1.000000 -1.732051
v -2.815820 -1.414214 -1.414214
v -2.815820 -1.732051 -1.000000
v -2.815820 -1.931852 -0.517638
v -2.815820 -2.000000 -0.000000
v -2.815820 -1.931852 0.517638
v -2.815820 -1.732051 1.000000
v -2.815820 -1.414214 1.414214
v -2.815820 -1.000000 1.732051
v -2.815820 -0.517638 1.931852
v -1.412264 0.000000 2.000000
v -1.412264 0.517638 1.931852
v -1.412264 1.000000 1.732051
v -1.412264 1.414214 1.414214
v -1.412264 1.732051 1.000000
v -1.412264 1.931852 0.517638
v -1.412264 2.000000 0.000000
v -1.412264 1.931852 -0.517638
v -1.412264 1.732051 -1.000000
v -1.412264 1.414214 -1.414214
v -1.412264 1.000000 -1.732051
v -1.412264 0.517638 -1.931852
v -1.412264 0.000000 -2.000000
v -1.412264 -0.517638 -1.931852
v -1.412264 -1.000000 -1.732051
v -1.412264 -1.414214 -1.414214
v -1.412264 -1.732051 -1.000000
v -1.412264 -1.931852 -0.517638
v -1.412264 -2.000000 -0.000000
v -1.412264 -1.931852 0.517638
v -1.412264 -1.732051 1.000000
v -1.412264 -1.414214 1.414214
v -1.412264 -1.000000 1.732051
v -1.412264 -0.517638 1.931852
v -0.000000 0.000000 2.000000
v -0.000000 0.517638 1.931852
v -0.000000 1.000000 1.732051
v -0.000000 1.414214 1.414214
v -0.000000 1.732051 1.000000
v -0.000000 1.931852 0.517638
v -0.000000 2.000000 0.000000
v -0.000000 1.931852 -0.517638
v -0.000000 1.732051 -1.000000
v -0.000000 1.414214 -1.414214
v -0.000000 1.000000 -1.732051
v -0.000000 0.517638 -1.931852
v -0.000000 0.000000 -2.000000
v -0.000000 -0.517638 -1.931852
v -0.000000 -1.000000 -1.732051
v -0.000000 -1.414214 -1.414214
v -0.000000 -1.732051 -1.000000
v -0.000000 -1.931852 -0.517638
v -0.000000 -2.000000 -0.000000
v -0.000000 -1.931852 0.517638
v -0.000000 -1.732051 1.000000
v -0.000000 -1.414214 1.414214
v -0.000000 -1.000000 1.732051
v -0.000000 -0.517638 1.931852
v 1.412264 0.000000 2.000000
v 1.412264 0.517638 1.931852
v 1.412264 1.000000 1.732051
v 1.412264 1.414214 1.414214
v 1.412264 1.732051 1.000000
v 1.412264 1.931852 0.517638
v 1.412264 2.000000 0.000000
v 1.412264 1.931852 -0.517638
v 1.412264 1.732051 -1.000000
v 1.412264 1.414214 -1.414214
v 1.412264 1.000000 -1.732051
v 1.412264 0.517638 -1.931852
v 1.412264 0.000000 -2.000000
v 1.412264 -0.517638 -1.931852
v 1.412264 -1.000000 -1.732051
v 1.412264 -1.414214 -1.414214
v 1.412264 -1.732051 -1.000000
v 1.412264 -1.931852 -0.517638
v 1.412264 -2.000000 -0.000000
v 1.412264 -1.931852 0.517638
v 1.412264 -1.732051 1.000000
v 1.412264 -1.414214 1.414214
v 1.412264 -1.000000 1.732051
v 1.412264 -0.517638 1.931852
v 2.815820 0.000000 2.000000
v 2.815820 0.517638 1.931852
v 2.815820 1.000000 1.732051
v 2.815820 1.414214 1.414214
v 2.815820 1.732051 1.000000
v 2.815820 1.931852 0.517638
v 2.815820 2.000000 0.000000
v 2.815820 1.931852 -0.517638
v 2.815820 1.732051 -1.000000
v 2.815820 1.414214 -1.414214
v 2.815820 1.000000 -1.732051
v 2.815820 0.517638 -1.931852
v 2.815820 0.000000 -2.000000
v 2.815820 -0.517638 -1.931852
v 2.815820 -1.000000 -1.732051
v 2.815820 -1.414214 -1.414214
v 2.815820 -1.732051 -1.000000
v 2.815820 -1.931852 -0.517638
v 2.815820 -2.000000 -0.000000
v 2.815820 -1.931852 0.517638
v 2.815820 -1.732051 1.000000
v 2.815820 -1.414214 1.414214
v 2.815820 -1.000000 1.732051
v 2.815820 -0.517638 1.931852
v 4.202017 0.000000 2.000000
v 4.202017 0.517638 1.931852
v 4.202017 1.000000 1.732051
v 4.202017 1.414214 1.414214
v 4.202017 1.732051 1.000000
v 4.202017 1.931852 0.517638
v 4.202017 2.000000 0.000000
v 4.202017 1.931852 -0.517638
v 4.202017 1.732051 -1.000000
v 4.202017 1.414214 -1.414214
v 4.202017 1.000000 -1.732051
v 4.202017 0.517638 -1.931852
v 4.202017 0.000000 -2.000000
v 4.202017 -0.517638 -1.931852
v 4.202017 -1.000000 -1.732051
v 4.202017 -1.414214 -1.414214
v 4.202017 -1.732051 -1.000000
v 4.202017 -1.931852 -0.517638
v 4.202017 -2.000000 -0.000000
v 4.202017 -1.931852 0.517638
v 4.202017 -1.732051 1.000000
v 4.202017 -1.414214 1.414214
v 4.202017 -1.000000 1.732051
v 4.202017 -0.517638 1.931852
v 5.562306 0.000000 2.000000
v 5.562306 0.517638 1.931852
v 5.562306 1.000000 1.732051
v 5.562306 1.414214 1.414214
v 5.562306 1.732051 1.000000
v 5.562306 1.931852 0.517638
v 5.562306 2.000000 0.000000
v 5.562306 1.931852 -0.517638
v 5.562306 1.732051 -1.000000
v 5.562306 1.414214 -1.414214
v 5.562306 1.000000 -1.732051
v 5.562306 0.517638 -1.931852
v 5.562306 0.000000 -2.000000
v 5.562306 -0.517638 -1.931852
v 5.562306 -1.000000 -1.732051
v 5.562306 -1.414214 -1.414214
v 5.562306 -1.732051 -1.000000
v 5.562306 -1.931852 -0.517638
v 5.562306 -2.000000 -0.000000
v 5.562306 -1.931852 0.517638
v 5.562306 -1.732051 1.000000
v 5.562306 -1.414214 1.414214
v 5.562306 -1.000000 1.732051
v 5.562306 -0.517638 1.931852
v 6.888302 0.000000 2.000000
v 6.888302 0.517638 1.931852
v 6.888302 1.000000 1.732051
v 6.888302 1.414214 1.414214
v 6.888302 1.732051 1.000000
v 6.888302 1.931852 0.517638
v 6.888302 2.000000 0.000000
v 6.888302 1.931852 -0.517638
v 6.888302 1.732051 -1.000000
v 6.888302 1.414214 -1.414214
v 6.888302 1.000000 -1.732051
v 6.888302 0.517638 -1.931852
v 6.888302 0.000000 -2.000000
v 6.888302 -0.517638 -1.931852
v 6.888302 -1.000000 -1.732051
v 6.888302 -1.414214 -1.414214
v 6.888302 -1.732051 -1.000000
v 6.888302 -1.931852 -0.517638
v 6.888302 -2.000000 -0.000000
v 6.888302 -1.931852 0.517638
v 6.888302 -1.732051 1.000000
v 6.888302 -1.414214 1.414214
v 6.888302 -1.000000 1.732051
v 6.888302 -0.517638 1.931852
v 8.171829 0.000000 2.000000
v 8.171829 0.517638 1.931852
v 8.171829 1.000000 1.732051
v 8.171829 1.414214 1.414214
v 8.171829 1.732051 1.000000
v 8.171829 1.931852 0.517638
v 8.171829 2.000000 0.000000
v 8.171829 1.931852 -0.517638
v 8.171829 1.732051 -1.000000
v 8.171829 1.414214 -1.414214
v 8.171829 1.000000 -1.732051
v 8.171829 0.517638 -1.931852
v 8.171829 0.000000 -2.000000
v 8.171829 -0.517638 -1.931852
v 8.171829 -1.000000 -1.732051
v 8.171829 -1.414214 -1.414214
v 8.171829 -1.732051 -1.000000
v 8.171829 -1.931852 -0.517638
v 8.171829 -2.000000 -0.000000
v 8.171829 -1.931852 0.517638
v 8.171829 -1.732051 1.000000
v 8.171829 -1.414214 1.414214
v 8.171829 -1.000000 1.732051
v 8.171829 -0.517638 1.931852
v 9.404974 0.000000 2.000000
v 9.404974 0.517638 1.931852
v 9.404974 1.000000 1.732051
v 9.404974 1.414214 1.414214
v 9.404974 1.732051 1.000000
v 9.404974 1.931852 0.517638
v 9.404974 2.000000 0.000000
v 9.404974 1.931852 -0.517638
v 9.404974 1.732051 -1.000000
v 9.404974 1.414214 -1.414214
v 9.404974 1.000000 -1.732051
v 9.404974 0.517638 -1.931852
v 9.404974 0.000000 -2.000000
v 9.404974 -0.517638 -1.931852
v 9.404974 -1.000000 -1.732051
v 9.404974 -1.414214 -1.414214
v 9.404974 -1.732051 -1.000000
v 9.404974 -1.931852 -0.517638
v 9.404974 -2.000000 -0.000000
v 9.404974 -1.931852 0.517638
v 9.404974 -1.732051 1.000000
v 9.404974 -1.414214 1.414214
v 9.404974 -1.000000 1.732051
v 9.404974 -0.517638 1.931852
v 10.580135 0.000000 2.000000
v 10.580135 0.517638 1.931852
v 10.580135 1.000000 1.732051
v 10.580135 1.414214 1.414214
v 10.580135 1.732051 1.000000
v 10.580135 1.931852 0.517638
v 10.580135 2.000000 0.000000
v 10.580135 1.931852 -0.517638
v 10.580135 1.732051 -1.000000
v 10.580135 1.414214 -1.414214
v 10.580135 1.000000 -1.732051
v 10.580135 0.517638 -1.931852
v 10.580135 0.000000 -2.000000
v 10.580135 -0.517638 -1.931852
v 10.580135 -1.000000 -1.732051
v 10.580135 -1.414214 -1.414214
v 10.580135 -1.732051 -1.000000
v 10.580135 -1.931852 -0.517638
v 10.580135 -2.000000 -0.000000
v 10.580135 -1.931852 0.517638
v 10.580135 -1.732051 1.000000
v 10.580135 -1.414214 1.414214
v 10.580135 -1.000000 1.732051
v 10.580135 -0.517638 1.931852
v 11.690065 0.000000 2.000000
v 11.690065 0.517638 1.931852
v 11.690065 1.000000 1.732051
v 11.690065 1.414214 1.414214
v 11.690065 1.732051 1.000000
v 11.690065 1.931852 0.517638
v 11.690065 2.000000 0.000000
v 11.690065 1.931852 -0.517638
v 11.690065 1.732051 -1.000000
v 11.690065 1.414214 -1.414214
v 11.690065 1.000000 -1.732051
v 11.690065 0.517638 -1.931852
v 11.690065 0.000000 -2.000000
v 11.690065 -0.517638 -1.931852
v 11.690065 -1.000000 -1.732051
v 11.690065 -1.414214 -1.414214
v 11.690065 -1.732051 -1.000000
v 11.690065 -1.931852 -0.517638
v 11.690065 -2.000000 -0.000000
v 11.690065 -1.931852 0.517638
v 11.690065 -1.732051 1.000000
v 11.690065 -1.414214 1.414214
v 11.690065 -1.000000 1.732051
v 11.690065 -0.517638 1.931852
v 12.727922 0.000000 2.000000
v 12.727922 0.517638 1.931852
v 12.727922 1.000000 1.732051
v 12.727922 1.414214 1.414214
v 12.727922 1.732051 1.000000
v 12.727922 1.931852 0.517638
v 12.727922 2.000000 0.000000
v 12.727922 1.931852 -0.517638
v 12.727922 1.732051 -1.000000
v 12.727922 1.414214 -1.414214
v 12.727922 1.000000 -1.732051
v 12.727922 0.517638 -1.931852
v 12.727922 0.000000 -2.000000
v 12.727922 -0.517638 -1.931852
v 12.727922 -1.000000 -1.732051
v 12.727922 -1.414214 -1.414214
v 12.727922 -1.732051 -1.000000
v 12.727922 -1.931852 -0.517638
v 12.727922 -2.000000 -0.000000
v 12.727922 -1.931852 0.517638
v 12.727922 -1.732051 1.000000
v 12.727922 -1.414214 1.414214
v 12.727922 -1.000000 1.732051
v 12.727922 -0.517638 1.931852
v 13.687307 0.000000 2.000000
v 13.687307 0.517638 1.931852
v 13.687307 1.000000 1.732051
v 13.687307 1.414214 1.414214
v 13.687307 1.732051 1.000000
v 13.687307 1.931852 0.517638
v 13.687307 2.000000 0.000000
v 13.687307 1.931852 -0.517638
v 13.687307 1.732051 -1.000000
v 13.687307 1.414214 -1.414214
v 13.687307 1.000000 -1.732051
v 13.687307 0.517638 -1.931852
v 13.687307 0.000000 -2.000000
v 13.687307 -0.517638 -1.931852
v 13.687307 -1.000000 -1.732051
v 13.687307 -1.414214 -1.414214
v 13.687307 -1.732051 -1.000000
v 13.687307 -1.931852 -0.517638
v 13.687307 -2.000000 -0.000000
v 13.687307 -1.931852 0.517638
v 13.687307 -1.732051 1.000000
v 13.687307 -1.414214 1.414214
v 13.687307 -1.000000 1.732051
v 13.687307 -0.517638 1.931852
v 14.562306 0.000000 2.000000
v 14.562306 0.517638 1.931852
v 14.562306 1.000000 1.732051
v 14.562306 1.414214 1.414214
v 14.562306 1.732051 1.000000
v 14.562306 1.931852 0.517638
v 14.562306 2.000000 0.000000
v 14.562306 1.931852 -0.517638
v 14.562306 1.732051 -1.000000
v 14.562306 1.414214 -1.414214
v 14.562306 1.000000 -1.732051
v 14.562306 0.517638 -1.931852
v 14.562306 0.000000 -2.000000
v 14.562306 -0.517638 -1.931852
v 14.562306 -1.000000 -1.732051
v 14.562306 -1.414214 -1.414214
v 14.562306 -1.732051 -1.000000
v 14.562306 -1.931852 -0.517638
v 14.562306 -2.000000 -0.000000
v 14.562306 -1.931852 0.517638
v 14.562306 -1.732051 1.000000
v 14.562306 -1.414214 1.414214
v 14.562306 -1.000000 1.732051
v 14.562306 -0.517638 1.931852
v 15.347523 0.000000 2.000000
v 15.347523 0.517638 1.931852
v 15.347523 1.000000 1.732051
v 15.347523 1.414214 1.414214
v 15.347523 1.732051 1.000000
v 15.347523 1.931852 0.517638
v 15.347523 2.000000 0.000000
v 15.347523 1.931852 -0.517638
v 15.347523 1.732051 -1.000000
v 15.347523 1.414214 -1.414214
v 15.347523 1.000000 -1.732051
v 15.347523 0.517638 -1.931852
v 15.347523 0.000000 -2.000000
v 15.347523 -0.517638 -1.931852
v 15.347523 -1.000000 -1.732051
v 15.347523 -1.414214 -1.414214
v 15.347523 -1.732051 -1.000000
v 15.347523 -1.931852 -0.517638
v 15.347523 -2.000000 -0.000000
v 15.347523 -1.931852 0.517638
v 15.347523 -1.732051 1.000000
v 15.347523 -1.414214 1.414214
v 15.347523 -1.000000 1.732051
v 15.347523 -0.517638 1.931852
v 16.038117 0.000000 2.000000
v 16.038117 0.517638 1.931852
v 16.038117 1.000000 1.732051
v 16.038117 1.414214 1.414214
v 16.038117 1.732051 1.000000
v 16.038117 1.931852 0.517638
v 16.038117 2.000000 0.000000
v 16.038117 1.931852 -0.517638
v 16.038117 1.732051 -1.000000
v 16.038117 1.414214 -1.414214
v 16.038117 1.000000 -1.732051
v 16.038117 0.517638 -1.931852
v 16.038117 0.000000 -2.000000
v 16.038117 -0.517638 -1.931852
v 16.038117 -1.000000 -1.732051
v 16.038117 -1.414214 -1.414214
v 16.038117 -1.732051 -1.000000
v 16.038117 -1.931852 -0.517638
v 16.038117 -2.000000 -0.000000
v 16.038117 -1.931852 0.517638
v 16.038117 -1.732051 1.000000
v 16.038117 -1.414214 1.414214
v 16.038117 -1.000000 1.732051
v 16.038117 -0.517638 1.931852
v 16.629832 0.000000 1.942140
v 16.629832 0.502663 1.875963
v 16.629832 0.971070 1.681942
v 16.629832 1.373300 1.373300
v 16.629832 1.681942 0.971070
v 16.629832 1.875963 0.502663
v 16.629832 1.942140 0.000000
v 16.629832 1.875963 -0.502663
v 16.629832 1.681942 -0.971070
v 16.629832 1.373300 -1.373300
v 16.629832 0.971070 -1.681942
v 16.629832 0.502663 -1.875963
v 16.629832 0.000000 -1.942140
v 16.629832 -0.502663 -1.875963
v 16.629832 -0.971070 -1.681942
v 16.629832 -1.373300 -1.373300
v 16.629832 -1.681942 -0.971070
v 16.629832 -1.875963 -0.502663
v 16.629832 -1.942140 -0.000000
v 16.629832 -1.875963 0.502663
v 16.629832 -1.681942 0.971070
v 16.629832 -1.373300 1.373300
v 16.629832 -0.971070 1.681942
v 16.629832 -0.502663 1.875963
v 17.119017 0.000000 1.719678
v 17.119017 0.445085 1.661082
v 17.119017 0.859839 1.489285
v 17.119017 1.215996 1.215996
v 17.119017 1.489285 0.859839
v 17.119017 1.661082 0.445085
v 17.119017 1.719678 0.000000
v 17.119017 1.661082 -0.445085
v 17.119017 1.489285 -0.859839
v 17.119017 1.215996 -1.215996
v 17.119017 0.859839 -1.489285
v 17.119017 0.445085 -1.661082
v 17.119017 0.000000 -1.719678
v 17.119017 -0.445085 -1.661082
v 17.119017 -0.859839 -1.489285
v 17.119017 -1.215996 -1.215996
v 17.119017 -1.489285 -0.859839
v 17.119017 -1.661082 -0.445085
v 17.119017 -1.719678 -0.000000
v 17.119017 -1.661082 0.445085
v 17.119017 -1.489285 0.859839
v 17.119017 -1.215996 1.215996
v 17.119017 -0.859839 1.489285
v 17.119017 -0.445085 1.661082
v 17.502659 0.000000 1.380231
v 17.502659 0.357230 1.333201
v 17.502659 0.690116 1.195315
v 17.502659 0.975971 0.975971
v 17.502659 1.195315 0.690116
v 17.502659 1.333201 0.357230
v 17.502659 1.380231 0.000000
v 17.502659 1.333201 -0.357230
v 17.502659 1.195315 -0.690116
v 17.502659 0.975971 -0.975971
v 17.502659 0.690116 -1.195315
v 17.502659 0.357230 -1.333201
v 17.502659 0.000000 -1.380231
v 17.502659 -0.357230 -1.333201
v 17.502659 -0.690116 -1.195315
v 17.502659 -0.975971 -0.975971
v 17.502659 -1.195315 -0.690116
v 17.502659 -1.333201 -0.357230
v 17.502659 -1.380231 -0.000000
v 17.502659 -1.333201 0.357230
v 17.502659 -1.195315 0.690116
v 17.502659 -0.975971 0.975971
v 17.502659 -0.690116 1.195315
v 17.502659 -0.357230 1.333201
v 17.778390 0.000000 0.961406
v 17.778390 0.248830 0.928647
v 17.778390 0.480703 0.832602
v 17.778390 0.679817 0.679817
v 17.778390 0.832602 0.480703
v 17.778390 0.928647 0.248830
v 17.778390 0.961406 0.000000
v 17.778390 0.928647 -0.248830
v 17.778390 0.832602 -0.480703
v 17.778390 0.679817 -0.679817
v 17.778390 0.480703 -0.832602
v 17.778390 0.248830 -0.928647
v 17.778390 0.000000 -0.961406
v 17.778390 -0.248830 -0.928647
v 17.778390 -0.480703 -0.832602
v 17.778390 -0.679817 -0.679817
v 17.778390 -0.832602 -0.480703
v 17.778390 -0.928647 -0.248830
v 17.778390 -0.961406 -0.000000
v 17.778390 -0.928647 0.248830
v 17.778390 -0.832602 0.480703
v 17.778390 -0.679817 0.679817
v 17.778390 -0.480703 0.832602
v 17.778390 -0.248830 0.928647
v 17.944512 0.000000 0.492760
v 17.944512 0.127536 0.475969
v 17.944512 0.246380 0.426742
v 17.944512 0.348434 0.348434
v 17.944512 0.426742 0.246380
v 17.944512 0.475969 0.127536
v 17.944512 0.492760 0.000000
v 17.944512 0.475969 -0.127536
v 17.944512 0.426742 -0.246380
v 17.944512 0.348434 -0.348434
v 17.944512 0.246380 -0.426742
v 17.944512 0.127536 -0.475969
v 17.944512 0.000000 -0.492760
v 17.944512 -0.127536 -0.475969
v 17.944512 -0.246380 -0.426742
v 17.944512 -0.348434 -0.348434
v 17.944512 -0.426742 -0.246380
v 17.944512 -0.475969 -0.127536
v 17.944512 -0.492760 -0.000000
v 17.944512 -0.475969 0.127536
v 17.944512 -0.426742 0.246380
v 17.944512 -0.348434 0.348434
v 17.944512 -0.246380 0.426742
v 17.944512 -0.127536 0.475969
v 18.000000 0.000000 0.000000
v 18.000000 0.000000 0.000000
v 18.000000 0.000000 0.000000
v 18.000000 0.000000 0.000000
v 18.000000 0.000000 0.000000
v 18.000000 0.000000 0.000000
v 18.000000 0.000000 0.000000
v 18.000000 0.000000 0.000000
v 18.000000 0.000000 0.000000
v 18.000000 0.000000 0.000000
v 18.000000 0.000000 0.000000
v 18.000000 0.000000 0.000000
v 18.000000 0.000000 0.000000
v 18.000000 -0.000000 0.000000
v 18.000000 -0.000000 0.000000
v 18.000000 -0.000000 0.000000
v 18.000000 -0.000000 0.000000
v 18.000000 -0.000000 0.000000
v 18.000000 -0.000000 0.000000
v 18.000000 -0.000000 0.000000
v 18.000000 -0.000000 0.000000
v 18.000000 -0.000000 0.000000
v 18.000000 -0.000000 0.000000
v 18.000000 -0.000000 0.000000
f 1 2 26 25
f 2 3 27 26
f 3 4 28 27
f 4 5 29 28
f 5 6 30 29
f 6 7 31 30
f 7 8 32 31
f 8 9 33 32
f 9 10 34 33
f 10 11 35 34
f 11 12 36 35
f 12 13 37 36
f 13 14 38 37
f 14 15 39 38
f 15 16 40 39
f 16 17 41 40
f 17 18 42 41
f 18 19 43 42
f 19 20 44 43
f 20 21 45 44
f 21 22 46 45
f 22 23 47 46
f 23 24 48 47
f 24 1 25 48
f 25 26 50 49
f 26 27 51 50
f 27 28 52 51
f 28 29 53 52
f 29 30 54 53
f 30 31 55 54
f 31 32 56 55
f 32 33 57 56
f 33 34 58 57
f 34 35 59 58
f 35 36 60 59
f 36 37 61 60
f 37 38 62 61
f 38 39 63 62
f 39 40 64 63
f 40 41 65 64
f 41 42 66 65
f 42 43 67 66
f 43 44 68 67
f 44 45 69 68
f 45 46 70 69
f 46 47 71 70
f 47 48 72 71
f 48 25 49 72
f 49 50 74 73
f 50 51 75 74
f 51 52 76 75
f 52 53 77 76
f 53 54 78 77
f 54 55 79 78
f 55 56 80 79
f 56 57 81 80
f 57 58 82 81
f 58 59 83 82
f 59 60 84 83
f 60 61 85 84
f 61 62 86 85
f 62 63 87 86
f 63 64 88 87
f 64 65 89 88
f 65 66 90 89
f 66 67 91 90
f 67 68 92 91
f 68 69 93 92
f 69 70 94 93
f 70 71 95 94
f 71 72 96 95
f 72 49 73 96
f 73 74 98 97
f 74 75 99 98
f 75 76 100 99
f 76 77 101 100
f 77 78 102 101
f 78 79 103 102
f 79 80 104 103
f 80 81 105 104
f 81 82 106 105
f 82 83 107 106
f 83 84 108 107
f 84 85 109 108
f 85 86 110 109
f 86 87 111 110
f 87 88 112 111
f 88 89 113 112
f 89 90 114 113
f 90 91 115 114
f 91 92 116 115
f 92 93 117 116
f 93 94 118 117
f 94 95 119 118
f 95 96 120 119
f 96 73 97 120
f 97 98 122 121
f 98 99 123 122
f 99 100 124 123
f 100 101 125 124
f 101 102 126 125
f 102 103 127 126
f 103 104 128 127
f 104 105 129 128
f 105 106 130 129
f 106 107 131 130
f 107 108 132 131
f 108 109 133 132
f 109 110 134 133
f 110 111 135 134
f 111 112 136 135
f 112 113 137 136
f 113 114 138 137
f 114 115 139 138
f 115 116 140 139
f 116 117 141 140
f 117 118 142 141
f 118 119 143 142
f 119 120 144 143
f 120 97 121 144
f 121 122 146 145
f 122 123 147 146
f 123 124 148 147
f 124 125 149 148
f 125 126 150 149
f 126 127 151 150
f 127 128 152 151
f 128 129 153 152
f 129 130 154 153
f 130 131 155 154
f 131 132 156 155
f 132 133 157 156
f 133 134 158 157
f 134 135 159 158
f 135 136 160 159
f 136 137 161 160
f 137 138 162 161
f 138 139 163 162
f 139 140 164 163
f 140 141 165 164
f 141 142 166 165
f 142 143 167 166
f 143 144 168 167
f 144 121 145 168
f 145 146 170 169
f 146 147 171 170
f 147 148 172 171
f 148 149 173 172
f 149 150 174 173
f 150 151 175 174
f 151 152 176 175
f 152 153 177 176
f 153 154 178 177
f 154 155 179 178
f 155 156 180 179
f 156 157 181 180
f 157 158 182 181
f 158 159 183 182
f 159 160 184 183
f 160 161 185 184
f 161 162 186 185
f 162 163 187 186
f 163 164 188 187
f 164 165 189 188
f 165 166 190 189
f 166 167 191 190
f 167 168 192 191
f 168 145 169 192
f 169 170 194 193
f 170 171 195 194
f 171 172 196 195
f 172 173 197 196
f 173 174 198 197
f 174 175 199 198
f 175 176 200 199
f 176 177 201 200
f 177 178 202 201
f 178 179 203 202
f 179 180 204 203
f 180 181 205 204
f 181 182 206 205
f 182 183 207 206
f 183 184 208 207
f 184 185 209 208
f 185 186 210 209
f 186 187 211 210
f 187 188 212 211
f 188 189 213 212
f 189 190 214 213
f 190 191 215 214
f 191 192 216 215
f 192 169 193 216
f 193 194 218 217
f 194 195 219 218
f 195 196 220 219
f 196 197 221 220
f 197 198 222 221
f 198 199 223 222
f 199 200 224 223
f 200 201 225 224
f 201 202 226 225
f 202 203 227 226
f 203 204 228 227
f 204 205 229 228
f 205 206 230 229
f 206 207 231 230
f 207 208 232 231
f 208 209 233 232
f 209 210 234 233
f 210 211 235 234
f 211 212 236 235
f 212 213 237 236
f 213 214 238 237
f 214 215 239 238
f 215 216 240 239
f 216 193 217 240
f 217 218 242 241
f 218 219 243 242
f 219 220 244 243
f 220 221 245 244
f 221 222 246 245
f 222 223 247 246
f 223 224 248 247
f 224 225 249 248
f 225 226 250 249
f 226 227 251 250
f 227 228 252 251
f 228 229 253 252
f 229 230 254 253
f 230 231 255 254
f 231 232 256 255
f 232 233 257 256
f 233 234 258 257
f 234 235 259 258
f 235 236 260 259
f 236 237 261 260
f 237 238 262 261
f 238 239 263 262
f 239 240 264 263
f 240 217 241 264
f 241 242 266 265
f 242 243 267 266
f 243 244 268 267
f 244 245 269 268
f 245 246 270 269
f 246 247 271 270
f 247 248 272 271
f 248 249 273 272
f 249 250 274 273
f 250 251 275 274
f 251 252 276 275
f 252 253 277 276
f 253 254 278 277
f 254 255 279 278
f 255 256 280 279
f 256 257 281 280
f 257 258 282 281
f 258 259 283 282
f 259 260 284 283
f 260 261 285 284
f 261 262 286 285
f 262 263 287 286
f 263 264 288 287
f 264 241 265 288
f 265 266 290 289
f 266 267 291 290
f 267 268 292 291
f 268 269 293 292
f 269 270 294 293
f 270 271 295 294
f 271 272 296 295
f 272 273 297 296
f 273 274 298 297
f 274 275 299 298
f 275 276 300 299
f 276 277 301 300
f 277 278 302 301
f 278 279 303 302
f 279 280 304 303
f 280 281 305 304
f 281 282 306 305
f 282 283 307 306
f 283 284 308 307
f 284 285 309 308
f 285 286 310 309
f 286 287 311 310
f 287 288 312 311
f 288 265 289 312
f 289 290 314 313
f 290 291 315 314
f 291 292 316 315
f 292 293 317 316
f 293 294 318 317
f 294 295 319 318
f 295 296 320 319
f 296 297 321 320
f 297 298 322 321
f 298 299 323 322
f 299 300 324 323
f 300 301 325 324
f 301 302 326 325
f 302 303 327 326
f 303 304 328 327
f 304 305 329 328
f 305 306 330 329
f 306 307 331 330
f 307 308 332 331
f 308 309 333 332
f 309 310 334 333
f 310 311 335 334
f 311 312 336 335
f 312 289 313 336
f 313 314 338 337
f 314 315 339 338
f 315 316 340 339
f 316 317 341 340
f 317 318 342 341
f 318 319 343 342
f 319 320 344 343
f 320 321 345 344
f 321 322 346 345
f 322 323 347 346
f 323 324 348 347
f 324 325 349 348
f 325 326 350 349
f 326 327 351 350
f 327 328 352 351
f 328 329 353 352
f 329 330 354 353
f 330 331 355 354
f 331 332 356 355
f 332 333 357 356
f 333 334 358 357
f 334 335 359 358
f 335 336 360 359
f 336 313 337 360
f 337 338 362 361
f 338 339 363 362
f 339 340 364 363
f 340 341 365 364
f 341 342 366 365
f 342 343 367 366
f 343 344 368 367
f 344 345 369 368
f 345 346 370 369
f 346 347 371 370
f 347 348 372 371
f 348 349 373 372
f 349 350 374 373
f 350 351 375 374
f 351 352 376 375
f 352 353 377 376
f 353 354 378 377
f 354 355 379 378
f 355 356 380 379
f 356 357 381 380
f 357 358 382 381
f 358 359 383 382
f 359 360 384 383
f 360 337 361 384
f 361 362 386 385
f 362 363 387 386
f 363 364 388 387
f 364 365 389 388
f 365 366 390 389
f 366 367 391 390
f 367 368 392 391
f 368 369 393 392
f 369 370 394 393
f 370 371 395 394
f 371 372 396 395
f 372 373 397 396
f 373 374 398 397
f 374 375 399 398
f 375 376 400 399
f 376 377 401 400
f 377 378 402 401
f 378 379 403 402
f 379 380 404 403
f 380 381 405 404
f 381 382 406 405
f 382 383 407 406
f 383 384 408 407
f 384 361 385 408
f 385 386 410 409
f 386 387 411 410
f 387 388 412 411
f 388 389 413 412
f 389 390 414 413
f 390 391 415 414
f 391 392 416 415
f 392 393 417 416
f 393 394 418 417
f 394 395 419 418
f 395 396 420 419
f 396 397 421 420
f 397 398 422 421
f 398 399 423 422
f 399 400 424 423
f 400 401 425 424
f 401 402 426 425
f 402 403 427 426
f 403 404 428 427
f 404 405 429 428
f 405 406 430 429
f 406 407 431 430
f 407 408 432 431
f 408 385 409 432
f 409 410 434 433
f 410 411 435 434
f 411 412 436 435
f 412 413 437 436
f 413 414 438 437
f 414 415 439 438
f 415 416 440 439
f 416 417 441 440
f 417 418 442 441
f 418 419 443 442
f 419 420 444 443
f 420 421 445 444
f 421 422 446 445
f 422 423 447 446
f 423 424 448 447
f 424 425 449 448
f 425 426 450 449
f 426 427 451 450
f 427 428 452 451
f 428 429 453 452
f 429 430 454 453
f 430 431 455 454
f 431 432 456 455
f 432 409 433 456
f 433 434 458 457
f 434 435 459 458
f 435 436 460 459
f 436 437 461 460
f 437 438 462 461
f 438 439 463 462
f 439 440 464 463
f 440 441 465 464
f 441 442 466 465
f 442 443 467 466
f 443 444 468 467
f 444 445 469 468
f 445 446 470 469
f 446 447 471 470
f 447 448 472 471
f 448 449 473 472
f 449 450 474 473
f 450 451 475 474
f 451 452 476 475
f 452 453 477 476
f 453 454 478 477
f 454 455 479 478
f 455 456 480 479
f 456 433 457 480
f 457 458 482 481
f 458 459 483 482
f 459 460 484 483
f 460 461 485 484
f 461 462 486 485
f 462 463 487 486
f 463 464 488 487
f 464 465 489 488
f 465 466 490 489
f 466 467 491 490
f 467 468 492 491
f 468 469 493 492
f 469 470 494 493
f 470 471 495 494
f 471 472 496 495
f 472 473 497 496
f 473 474 498 497
f 474 475 499 498
f 475 476 500 499
f 476 477 501 500
f 477 478 502 501
f 478 479 503 502
f 479 480 504 503
f 480 457 481 504
f 481 482 506 505
f 482 483 507 506
f 483 484 508 507
f 484 485 509 508
f 485 486 510 509
f 486 487 511 510
f 487 488 512 511
f 488 489 513 512
f 489 490 514 513
f 490 491 515 514
f 491 492 516 515
f 492 493 517 516
f 493 494 518 517
f 494 495 519 518
f 495 496 520 519
f 496 497 521 520
f 497 498 522 521
f 498 499 523 522
f 499 500 524 523
f 500 501 525 524
f 501 502 526 525
f 502 503 527 526
f 503 504 528 527
f 504 481 505 528
f 505 506 530 529
f 506 507 531 530
f 507 508 532 531
f 508 509 533 532
f 509 510 534 533
f 510 511 535 534
f 511 512 536 535
f 512 513 537 536
f 513 514 538 537
f 514 515 539 538
f 515 516 540 539
f 516 517 541 540
f 517 518 542 541
f 518 519 543 542
f 519 520 544 543
f 520 521 545 544
f 521 522 546 545
f 522 523 547 546
f 523 524 548 547
f 524 525 549 548
f 525 526 550 549
f 526 527 551 550
f 527 528 552 551
f 528 505 529 552
f 529 530 554 553
f 530 531 555 554
f 531 532 556 555
f 532 533 557 556
f 533 534 558 557
f 534 535 559 558
f 535 536 560 559
f 536 537 561 560
f 537 538 562 561
f 538 539 563 562
f 539 540 564 563
f 540 541 565 564
f 541 542 566 565
f 542 543 567 566
f 543 544 568 567
f 544 545 569 568
f 545 546 570 569
f 546 547 571 570
f 547 548 572 571
f 548 549 573 572
f 549 550 574 573
f 550 551 575 574
f 551 552 576 575
f 552 529 553 576
f 553 554 578 577
f 554 555 579 578
f 555 556 580 579
f 556 557 581 580
f 557 558 582 581
f 558 559 583 582
f 559 560 584 583
f 560 561 585 584
f 561 562 586 585
f 562 563 587 586
f 563 564 588 587
f 564 565 589 588
f 565 566 590 589
f 566 567 591 590
f 567 568 592 591
f 568 569 593 592
f 569 570 594 593
f 570 571 595 594
f 571 572 596 595
f 572 573 597 596
f 573 574 598 597
f 574 575 599 598
f 575 576 600 599
f 576 553 577 600
f 577 578 602 601
f 578 579 603 602
f 579 580 604 603
f 580 581 605 604
f 581 582 606 605
f 582 583 607 606
f 583 584 608 607
f 584 585 609 608
f 585 586 610 609
f 586 587 611 610
f 587 588 612 611
f 588 589 613 612
f 589 590 614 613
f 590 591 615 614
f 591 592 616 615
f 592 593 617 616
f 593 594 618 617
f 594 595 619 618
f 595 596 620 619
f 596 597 621 620
f 597 598 622 621
f 598 599 623 622
f 599 600 624 623
f 600 577 601 624
f 601 602 626 625
f 602 603 627 626
f 603 604 628 627
f 604 605 629 628
f 605 606 630 629
f 606 607 631 630
f 607 608 632 631
f 608 609 633 632
f 609 610 634 633
f 610 611 635 634
f 611 612 636 635
f 612 613 637 636
f 613 614 638 637
f 614 615 639 638
f 615 616 640 639
f 616 617 641 640
f 617 618 642 641
f 618 619 643 642
f 619 620 644 643
f 620 621 645 644
f 621 622 646 645
f 622 623 647 646
f 623 624 648 647
f 624 601 625 648
f 625 626 650 649
f 626 627 651 650
f 627 628 652 651
f 628 629 653 652
f 629 630 654 653
f 630 631 655 654
f 631 632 656 655
f 632 633 657 656
f 633 634 658 657
f 634 635 659 658
f 635 636 660 659
f 636 637 661 660
f 637 638 662 661
f 638 639 663 662
f 639 640 664 663
f 640 641 665 664
f 641 642 666 665
f 642 643 667 666
f 643 644 668 667
f 644 645 669 668
f 645 646 670 669
f 646 647 671 670
f 647 648 672 671
f 648 625 649 672
f 649 650 674 673
f 650 651 675 674
f 651 652 676 675
f 652 653 677 676
f 653 654 678 677
f 654 655 679 678
f 655 656 680 679
f 656 657 681 680
f 657 658 682 681
f 658 659 683 682
f 659 660 684 683
f 660 661 685 684
f 661 662 686 685
f 662 663 687 686
f 663 664 688 687
f 664 665 689 688
f 665 666 690 689
f 666 667 691 690
f 667 668 692 691
f 668 669 693 692
f 669 670 694 693
f 670 671 695 694
f 671 672 696 695
f 672 649 673 696
f 673 674 698 697
f 674 675 699 698
f 675 676 700 699
f 676 677 701 700
f 677 678 702 701
f 678 679 703 702
f 679 680 704 703
f 680 681 705 704
f 681 682 706 705
f 682 683 707 706
f 683 684 708 707
f 684 685 709 708
f 685 686 710 709
f 686 687 711 710
f 687 688 712 711
f 688 689 713 712
f 689 690 714 713
f 690 691 715 714
f 691 692 716 715
f 692 693 717 716
f 693 694 718 717
f 694 695 719 718
f 695 696 720 719
f 696 673 697 720
f 697 698 722 721
f 698 699 723 722
f 699 700 724 723
f 700 701 725 724
f 701 702 726 725
f 702 703 727 726
f 703 704 728 727
f 704 705 729 728
f 705 706 730 729
f 706 707 731 730
f 707 708 732 731
f 708 709 733 732
f 709 710 734 733
f 710 711 735 734
f 711 712 736 735
f 712 713 737 736
f 713 714 738 737
f 714 715 739 738
f 715 716 740 739
f 716 717 741 740
f 717 718 742 741
f 718 719 743 742
f 719 720 744 743
f 720 697 721 744
f 721 722 746 745
f 722 723 747 746
f 723 724 748 747
f 724 725 749 748
f 725 726 750 749
f 726 727 751 750
f 727 728 752 751
f 728 729 753 752
f 729 730 754 753
f 730 731 755 754
f 731 732 756 755
f 732 733 757 756
f 733 734 758 757
f 734 735 759 758
f 735 736 760 759
f 736 737 761 760
f 737 738 762 761
f 738 739 763 762
f 739 740 764 763
f 740 741 765 764
f 741 742 766 765
f 742 743 767 766
f 743 744 768 767
f 744 721 745 768
f 745 746 770 769
f 746 747 771 770
f 747 748 772 771
f 748 749 773 772
f 749 750 774 773
f 750 751 775 774
f 751 752 776 775
f 752 753 777 776
f 753 754 778 777
f 754 755 779 778
f 755 756 780 779
f 756 757 781 780
f 757 758 782 781
f 758 759 783 782
f 759 760 784 783
f 760 761 785 784
f 761 762 786 785
f 762 763 787 786
f 763 764 788 787
f 764 765 789 788
f 765 766 790 789
f 766 767 791 790
f 767 768 792 791
f 768 745 769 792
f 769 770 794 793
f 770 771 795 794
f 771 772 796 795
f 772 773 797 796
f 773 774 798 797
f 774 775 799 798
f 775 776 800 799
f 776 777 801 800
f 777 778 802 801
f 778 779 803 802
f 779 780 804 803
f 780 781 805 804
f 781 782 806 805
f 782 783 807 806
f 783 784 808 807
f 784 785 809 808
f 785 786 810 809
f 786 787 811 810
f 787 788 812 811
f 788 789 813 812
f 789 790 814 813
f 790 791 815 814
f 791 792 816 815
f 792 769 793 816
f 793 794 818 817
f 794 795 819 818
f 795 796 820 819
f 796 797 821 820
f 797 798 822 821
f 798 799 823 822
f 799 800 824 823
f 800 801 825 824
f 801 802 826 825
f 802 803 827 826
f 803 804 828 827
f 804 805 829 828
f 805 806 830 829
f 806 807 831 830
f 807 808 832 831
f 808 809 833 832
f 809 810 834 833
f 810 811 835 834
f 811 812 836 835
f 812 813 837 836
f 813 814 838 837
f 814 815 839 838
f 815 816 840 839
f 816 793 817 840
f 817 818 842 841
f 818 819 843 842
f 819 820 844 843
f 820 821 845 844
f 821 822 846 845
f 822 823 847 846
f 823 824 848 847
f 824 825 849 848
f 825 826 850 849
f 826 827 851 850
f 827 828 852 851
f 828 829 853 852
f 829 830 854 853
f 830 831 855 854
f 831 832 856 855
f 832 833 857 856
f 833 834 858 857
f 834 835 859 858
f 835 836 860 859
f 836 837 861 860
f 837 838 862 861
f 838 839 863 862
f 839 840 864 863
f 840 817 841 864
f 841 842 866 865
f 842 843 867 866
f 843 844 868 867
f 844 845 869 868
f 845 846 870 869
f 846 847 871 870
f 847 848 872 871
f 848 849 873 872
f 849 850 874 873
f 850 851 875 874
f 851 852 876 875
f 852 853 877 876
f 853 854 878 877
f 854 855 879 878
f 855 856 880 879
f 856 857 881 880
f 857 858 882 881
f 858 859 883 882
f 859 860 884 883
f 860 861 885 884
f 861 862 886 885
f 862 863 887 886
f 863 864 888 887
f 864 841 865 888
f 865 866 890 889
f 866 867 891 890
f 867 868 892 891
f 868 869 893 892
f 869 870 894 893
f 870 871 895 894
f 871 872 896 895
f 872 873 897 896
f 873 874 898 897
f 874 875 899 898
f 875 876 900 899
f 876 877 901 900
f 877 878 902 901
f 878 879 903 902
f 879 880 904 903
f 880 881 905 904
f 881 882 906 905
f 882 883 907 906
f 883 884 908 907
f 884 885 909 908
f 885 886 910 909
f 886 887 911 910
f 887 888 912 911
f 888 865 889 912
f 889 890 914 913
f 890 891 915 914
f 891 892 916 915
f 892 893 917 916
f 893 894 918 917
f 894 895 919 918
f 895 896 920 919
f 896 897 921 920
f 897 898 922 921
f 898 899 923 922
f 899 900 924 923
f 900 901 925 924
f 901 902 926 925
f 902 903 927 926
f 903 904 928 927
f 904 905 929 928
f 905 906 930 929
f 906 907 931 930
f 907 908 932 931
f 908 909 933 932
f 909 910 934 933
f 910 911 935 934
f 911 912 936 935
f 912 889 913 936
f 913 914 938 937
f 914 915 939 938
f 915 916 940 939
f 916 917 941 940
f 917 918 942 941
f 918 919 943 942
f 919 920 944 943
f 920 921 945 944
f 921 922 946 945
f 922 923 947 946
f 923 924 948 947
f 924 925 949 948
f 925 926 950 949
f 926 927 951 950
f 927 928 952 951
f 928 929 953 952
f 929 930 954 953
f 930 931 955 954
f 931 932 956 955
f 932 933 957 956
f 933 934 958 957
f 934 935 959 958
f 935 936 960 959
f 936 913 937 960
f 937 938 962 961
f 938 939 963 962
f 939 940 964 963
f 940 941 965 964
f 941 942 966 965
f 942 943 967 966
f 943 944 968 967
f 944 945 969 968
f 945 946 970 969
f 946 947 971 970
f 947 948 972 971
f 948 949 973 972
f 949 950 974 973
f 950 951 975 974
f 951 952 976 975
f 952 953 977 976
f 953 954 978 977
f 954 955 979 978
f 955 956 980 979
f 956 957 981 980
f 957 958 982 981
f 958 959 983 982
f 959 960 984 983
f 960 937 961 984
